<svg xmlns="http://www.w3.org/2000/svg" width="30" height="30" viewBox="0 0 30 30" fill="none">
<path fill-rule="evenodd" clip-rule="evenodd" d="M6 3C4.34315 3 3 4.34315 3 6V22.5C3 24.9853 5.01472 27 7.5 27C9.98528 27 12 24.9853 12 22.5V6C12 4.34315 10.6569 3 9 3H6ZM7.5 24C8.32843 24 9 23.3284 9 22.5C9 21.6716 8.32843 21 7.5 21C6.67157 21 6 21.6716 6 22.5C6 23.3284 6.67157 24 7.5 24Z" fill="white"/>
<path d="M15 21.3638L22.3492 14.0146C23.5208 12.843 23.5208 10.9435 22.3492 9.77197L20.2279 7.65065C19.0563 6.47908 17.1568 6.47908 15.9853 7.65065L15 8.63592V21.3638Z" fill="white"/>
<path d="M24 27H13.6066L22.6066 18H24C25.6569 18 27 19.3431 27 21V24C27 25.6569 25.6569 27 24 27Z" fill="white"/>
</svg>